<?xml version="1.0" encoding="UTF-8"?>
<svg id="Layer_1" xmlns="http://www.w3.org/2000/svg" version="1.1" viewBox="0 0 255 136">
  <!-- Generator: Adobe Illustrator 29.1.0, SVG Export Plug-In . SVG Version: 2.1.0 Build 142)  -->
  <path d="M19.6,47.6c10-10.1,26.1-14,33.7,1,3.1,6.1,3.4,12.6,5.3,18.9h3.9c.2-4.1-.3-8.5,0-12.6.3-4.7,2.2-20.1,4.3-23.7s3.7-4,4.5-4.1c2.2-.2,3.8,4.8,4.4,6.6,2.1,7.1,2.4,15.2,4.6,22.3s.6,2,1.2,2c.9-4.1,1.2-8.5,2.1-12.6s2.4-12.2,3.8-15.6,2.6-2.8,3.8-4.2c2,0,2,8.5,2.3,10.2s.8,2,.9,3.1c1,6.8,1.7,13.8,2,20.7l24.4-7.1c-.4-2.8.6-6.1.6-8.6s-.6-2.3-.6-3.5c0-5.1-1-9.5,3.8-12.7.6,7.6,2.6,15.3,1.2,22.9,18.1-3.2,35.2-11.1,53.2-14.9s18.8-3.3,27.4-2.6,6.2,1.1,4,4c-3.9,5.2-13,4.9-19,4.5s-2.9,0-2.7-1.3c2.4-5.1,4.7-1.6,7.7-1.2s8.1-.7,11.2-1.5c-.2-.8-2.2-1.4-2.8-1.5-18.9-2.4-43.4,7-61.4,12.4s-11.8,3.1-17.7,4.8l-.9,1.1c-.6,3.9-1.8,5.7-1,9.7,2.5,11.8,13,4,20.4,1.7,28.1-8.8,50.6-7.9,79.4-9.4,4.2-.2,8.5.2,12.7,0,.4.4-2.6,3.4-2.8,3.4-.6.2-2.3-.5-3.4-.5-27.4,1.1-54.6-.2-81.2,7.2-6.2,1.7-12.6,4.9-18.4,6.5-6.8,1.9-9-1.5-9.9-7.6-1.6.3-1.8,2-3.1,2.6-4.1,1.8-5.5-1.9-8.1-4.1-1.4.9-4.3,5.3-5.9,4.9-2.5-1.6-1.5-5.3-1.8-7.7s.3-.9-.7-.7-3.3,1.5-4.8,1.8c0,2.1,0,11.5,1.5,12.4s1-.3,1-.2c0,2-2.4,2.8-3.2,4.5-.6.2-.9-.4-1.1-.9-1.2-2.7-1-10.5-1.6-13.9l-.8-.7-24.7,5.7c-2.7,4.3,1.8,12.4-4,14.2.8-1.3-1-4-1-4.2v-9.2c-1.3,0-3.4-.3-3.9,1.3.1,5.7.8,11.6.4,17.4-.3,3.8-1.1,7.8-4.3,10.2-.5-2.5,1-4.8,1.3-7.2.7-6.6-.3-14.2-1-20.7h-19.7c-.2,0-.7-.7-1.2-.8-7.4-1.2-18.8-5-19.4-14-.3-4.2,2.5-6.1,5-8.7-.2.2-1.8,3.5-1.9,3.9-1,4.9,3.6,9.9,7.5,12.2s12.5,4.2,18.5,4.4,10,.3,10.5-.5c.6-1.7,0-3.5-.3-5.2-2-10.2-7.7-22.2-20.1-20.7s-12.5,4.1-14.3,5.9ZM67.8,41.3c.9,1.7-1.5,2.5-1.4,4.1l.6,20.4.9.6c1.7-.5,10.8-1,10.9-2.5-4.4-10.8-3.6-23.2-8.9-33.7-.3-.2-.9.7-1.1,1.1-.4.9-2,8.8-1.9,9.5s.8.3.8.5ZM92.9,61.1c.6-.7-.7-13.6-1-15.6s-.8-1.6-.9-2.6c-.4-3.1.4-8.1-2-10.2-.4,4.3-2,8.6-2.9,12.9s-1.4,8.8-2.4,13.1-1.4,3-2.3,5l11.4-2.5ZM120.4,64.4v-8.5l-1.2-.7c-2.4.9-5.3,2-7.7,2.8-4.1,1.2-7.4-.3-6.5,5.3,1.1,6,4.5-1.3,6.6-1.7s3,3.4,5.6,3.9,2.8,0,3.1-1.2Z"/>
  <path d="M238.5,71.5c0,.1-1,.4-1.4.8s-.3,1.5-1,1.3c-.5-3.1-3.9-.8-5.8-.5-16.8,2.1-33.3,4.7-50,7.4-36,5.7-71.6,10.8-107,20.2s-20.2,4.7-26.1,7.3-1.7,1.4-2.7,2c-.6-.6,3.6-4.5,4.4-4.9,20.9-5.8,41.8-11.5,63.1-15.7,25.5-5,51.1-8.8,76.9-12.9,13.9-2.2,28.3-5.3,42.5-6.9s6.1-.6,6.4-.5c.8.2,1.1,1.7.7,2.4Z"/>
</svg>