<?xml version="1.0" encoding="UTF-8"?>
<svg id="Layer_2" data-name="Layer 2" xmlns="http://www.w3.org/2000/svg" viewBox="0 0 243.05 95.74">
  <defs>
    <style>
      .cls-1 {
        fill: #010101;
      }
    </style>
  </defs>
  <g id="Layer_1-2" data-name="Layer 1">
    <g>
      <path class="cls-1" d="M84.8,3.28c-2.65-2.63-17.22,8.35-19.83,10.44-7.15,5.76-12.8,12.58-19.15,19.11-2.76,2.83-6.04,7.39-10.37,6.49-2.54-1.61,2.97-16.45,3.37-19.74.12-.95.05-1.32-1.01-1-2.63.78-11.86,10.28-14.3,12.82-5.14,5.35-12.97,16.68-18.43,20.51-10.98,7.7-.77-15.76-.47-18.6.28-2.62-1.98-5.58,1.25-7.72,2.62-1.74,3.91-.62,3.79,2.32-.18,4.36-4.41,12.71-5.44,17.56-.15.69-.78,3.08.52,2.95.04-.79.51-1.54,1.02-2.1,7-7.67,21.61-25.45,29.82-29.99,12.07-6.67,1.83,15.47,2.93,19.59,10.85-11.17,22.29-25.19,36.09-32.77,11.85-6.52,16.28-2.81,11.23,9.82-7.53,18.88-36.53,57.34-32.2,76.65.26,1.16,1.52,3.29,2.85,3.16,5.7-.52,17.95-17.58,19.64-17.95,4.64-1.03-2.19,6.95-2.79,7.65-2.93,3.4-12.53,13.05-16.73,13.24-10.19.46-5.81-17.93-4.16-23.67,5.71-19.93,20.27-38.09,28.79-56.73,1.71-3.75,3.9-7.9,3.58-12.06Z"/>
      <path d="M242.84,37.33c-1.94-1.96-12.42,11.98-12.6,2.44-.13-6.83,13.58-18.37,12.57-22.17-.89-3.37-5.07,1.46-5.9,2.35-2.56,2.78-7.45,13.34-8.13,13.77-.57.36-2.7.16-3.92.6-1.54.54-5.71,1.65-6.35,1.94-1.55.7-5.2,5.57-7.36,6.62-1.45-2.09,2.75-4.99,2.44-6.58-.44-2.28-2.96.18-3.15.18-.51,0-1.3-1.96-3.45-1.99-3.01-.05-5.16,3.69-8.24,5.05-1.31.58-8.29,2.49-8.83,1.96-.37-.37.4-5.16-2.45-5.6-2.58-.4-6.23,2.65-8.68,3.52,0-4.84-3.19-1.98-5.19-2.06-.44-.02-.16-2.12-2.08-1.38-.55.21-1.85,2.53-3.39,3.57-1.62,1.1-10.74,4.22-11.63,3.34-.21-.21.08-4.84-1.84-5.49-2.67-.91-6.78,2.49-9.29,3.41,0-4.84-3.19-1.98-5.19-2.06-.44-.02-.16-2.12-2.08-1.37-.77.3-6.75,8.29-9.1,8.98-1.38-2.06,2.22-4.5,2.36-6,.29-3.13-2.85-.4-3.06-.4-.5,0-1.26-1.52-2.23-1.82-4.51-1.39-10.68,7.49-14.48,8.91-1.37.51-1.1-.69-.9-1.59.77-3.4,4.54-8.37-2.22-6.05-.91-1.14,9.5-20.73,10.77-23.64.55-1.26,1.53-2.57,0-3.45l-2.34,1.13-14.05,29.75c-2.19,1.14-11.96,6.34-13.59,3.9-.99-1.48.94-5.28-2.7-4.92-2,.2-8.59,7.15-9.44,6.26.25-2.99,3.48-4.81,2.79-7.98-3.88-1.47-6.28,6.88-5.6,9.61,1,3.99,9.61-3.21,10.83-3.69,1.61-.64.97,2.36,1.89,3.3,3.25,3.34,13.21-2.37,13.76-1.92-.88.92-3.47,6.97-1.04,6.93.91-.02,6.41-8.48,7.66-9.71l.34,4.86c3.46.43,6.45-.88,8.71-3.47.37,6.75,6.27,1.45,9.05-.69,1.86,7.36,5.79.37,7.75.07.79-.12,1.44,1.01,2,1.07,1.61.17,5.48-4.89,6.96-6,1.46,9.61,6.88-1.31,10.43-1.4.86,9.45,8.85,6.28,14.97,3.48.27,6.31,5.76-1.7,8.02-3.47,1.5,8.96,6.24,0,9.76-1.38,1.78-.69.95,4.17,2.82,5.5,3.63,2.58,10.98-1.72,11.44-1.33-2.68,7.58,5.31,2.6,8.01,0,1.36,6.09,5.57,2.2,8.35-.69.8,7.66,7.68.47,10.45-2.08,1.56-.24.8.28,1.04,1.02,1.12,3.47,1,5.85,5.86,5.22,1.93-.25,11.18-6.58,9.45-8.33ZM120.31,46.36c-.88-1.05,4.13-6.24,4.52-6.24.25,0,1.27,1.39,1.73,1.72l-6.24,4.52ZM202.46,42.88c-.88-1.05,4.13-6.24,4.52-6.24.25,0,1.27,1.39,1.73,1.72l-6.24,4.52ZM220.56,40.79c-.26-.24,3.32-4.41,4.87-3.46l-4.87,3.46Z"/>
    </g>
  </g>
</svg>